<svg width="782" height="202" viewBox="0 0 782 202" fill="none" xmlns="http://www.w3.org/2000/svg">
<path d="M294.553 142.87C287.891 142.87 281.876 141.482 276.509 138.706C271.142 135.93 266.885 131.905 263.739 126.63C260.686 121.356 259.159 115.017 259.159 107.615V105.671C259.159 98.2686 260.686 91.9301 263.739 86.6556C266.885 81.3812 271.142 77.3559 276.509 74.5799C281.876 71.8039 287.891 70.4159 294.553 70.4159C301.123 70.4159 306.721 71.5725 311.348 73.8859C316.067 76.1993 319.861 79.3917 322.73 83.4632C325.598 87.4421 327.449 91.9301 328.282 96.9269L312.875 100.119C312.505 97.2508 311.626 94.6598 310.238 92.3465C308.85 89.9406 306.86 88.0436 304.269 86.6556C301.771 85.2676 298.671 84.5736 294.969 84.5736C291.176 84.5736 287.752 85.4064 284.698 87.072C281.737 88.6451 279.377 91.051 277.619 94.2897C275.954 97.5284 275.121 101.415 275.121 105.949V107.337C275.121 111.871 275.954 115.758 277.619 118.996C279.377 122.142 281.737 124.548 284.698 126.214C287.752 127.88 291.176 128.712 294.969 128.712C300.614 128.712 304.871 127.278 307.739 124.41C310.7 121.448 312.551 117.655 313.291 113.028L328.698 116.637C327.588 121.448 325.598 125.844 322.73 129.823C319.861 133.802 316.067 136.994 311.348 139.4C306.721 141.713 301.123 142.87 294.553 142.87ZM365.462 142.87C360.65 142.87 356.301 142.037 352.415 140.372C348.528 138.614 345.428 136.115 343.115 132.876C340.894 129.638 339.784 125.659 339.784 120.94C339.784 116.313 340.894 112.426 343.115 109.28C345.428 106.134 348.575 103.774 352.554 102.201C356.532 100.536 361.067 99.7029 366.156 99.7029H386.005V95.5389C386.005 91.9301 384.894 89.0152 382.673 86.7944C380.453 84.4811 376.983 83.3244 372.263 83.3244C367.637 83.3244 364.12 84.4348 361.714 86.6556C359.401 88.7839 357.874 91.5599 357.134 94.9837L342.421 90.1256C343.531 86.5168 345.29 83.2318 347.695 80.2708C350.194 77.3097 353.479 74.95 357.55 73.1919C361.622 71.3412 366.619 70.4159 372.541 70.4159C381.517 70.4159 388.549 72.683 393.639 77.2171C398.821 81.6588 401.412 88.1362 401.412 96.6493V123.577C401.412 126.353 402.707 127.741 405.298 127.741H411.128V140.927H399.885C396.553 140.927 393.824 140.094 391.695 138.428C389.567 136.763 388.503 134.496 388.503 131.627V131.35H386.143C385.588 132.645 384.617 134.218 383.229 136.069C381.841 137.92 379.712 139.539 376.844 140.927C374.068 142.222 370.274 142.87 365.462 142.87ZM368.099 129.823C373.374 129.823 377.677 128.342 381.008 125.381C384.339 122.328 386.005 118.256 386.005 113.167V111.779H367.128C363.704 111.779 360.928 112.519 358.8 113.999C356.671 115.48 355.607 117.655 355.607 120.523C355.607 123.299 356.718 125.566 358.938 127.324C361.159 128.99 364.213 129.823 368.099 129.823ZM424.334 140.927V72.3591H440.019V81.9364H442.378C443.581 79.3454 445.756 76.8933 448.902 74.5799C452.048 72.2666 456.814 71.1099 463.199 71.1099C468.473 71.1099 473.146 72.3128 477.218 74.7187C481.289 77.1246 484.435 80.4558 486.656 84.7124C488.969 88.969 490.126 94.0121 490.126 99.8417V140.927H474.164V101.091C474.164 95.5389 472.776 91.4211 470 88.7376C467.316 85.9616 463.476 84.5736 458.479 84.5736C452.835 84.5736 448.393 86.4705 445.155 90.2644C441.916 93.9658 440.296 99.2865 440.296 106.227V140.927H424.334ZM542.209 142.87C535.362 142.87 529.208 141.482 523.749 138.706C518.382 135.838 514.125 131.812 510.979 126.63C507.925 121.356 506.398 115.064 506.398 107.753V105.533C506.398 98.2224 507.925 91.9301 510.979 86.6556C514.125 81.3812 518.382 77.3559 523.749 74.5799C529.208 71.8039 535.362 70.4159 542.209 70.4159C549.057 70.4159 555.164 71.8039 560.531 74.5799C565.898 77.3559 570.108 81.3812 573.162 86.6556C576.308 91.9301 577.881 98.2224 577.881 105.533V107.753C577.881 115.064 576.308 121.356 573.162 126.63C570.108 131.812 565.898 135.838 560.531 138.706C555.164 141.482 549.057 142.87 542.209 142.87ZM542.209 128.712C548.039 128.712 552.804 126.862 556.506 123.16C560.207 119.366 562.058 114.092 562.058 107.337V105.949C562.058 99.194 560.207 93.9658 556.506 90.2644C552.804 86.4705 548.039 84.5736 542.209 84.5736C536.379 84.5736 531.614 86.4705 527.913 90.2644C524.211 93.9658 522.361 99.194 522.361 105.949V107.337C522.361 114.092 524.211 119.366 527.913 123.16C531.614 126.862 536.379 128.712 542.209 128.712ZM594.854 168.687V72.3591H610.538V81.3812H612.898C614.471 78.5126 616.969 75.9679 620.393 73.7471C623.909 71.5263 628.906 70.4159 635.384 70.4159C640.936 70.4159 646.071 71.8039 650.791 74.5799C655.602 77.2634 659.443 81.2424 662.311 86.5168C665.18 91.7913 666.614 98.1298 666.614 105.533V107.753C666.614 115.156 665.18 121.495 662.311 126.769C659.443 132.044 655.649 136.069 650.929 138.845C646.21 141.528 641.028 142.87 635.384 142.87C631.035 142.87 627.38 142.361 624.418 141.343C621.55 140.325 619.19 138.984 617.34 137.318C615.581 135.652 614.193 133.987 613.176 132.321H610.816V168.687H594.854ZM630.664 128.99C636.494 128.99 641.26 127.139 644.961 123.438C648.755 119.644 650.652 114.277 650.652 107.337V105.949C650.652 98.9164 648.755 93.5494 644.961 89.848C641.167 86.1467 636.402 84.296 630.664 84.296C624.927 84.296 620.116 86.1467 616.229 89.848C612.435 93.5494 610.538 98.9164 610.538 105.949V107.337C610.538 114.277 612.435 119.644 616.229 123.438C620.116 127.139 624.927 128.99 630.664 128.99ZM691.136 168.687V154.807H729.029C731.62 154.807 732.915 153.419 732.915 150.643V131.488H730.556C729.816 133.154 728.613 134.82 726.947 136.485C725.281 138.058 723.061 139.4 720.284 140.51C717.508 141.528 713.992 142.037 709.736 142.037C704.461 142.037 699.788 140.881 695.717 138.567C691.645 136.161 688.499 132.83 686.278 128.574C684.057 124.224 682.947 119.181 682.947 113.444V72.3591H698.77V112.195C698.77 117.747 700.112 121.865 702.796 124.548C705.572 127.232 709.458 128.574 714.455 128.574C720.099 128.574 724.541 126.723 727.78 123.022C731.111 119.32 732.777 113.999 732.777 107.059V72.3591H748.6V153.974C748.6 158.508 747.304 162.071 744.714 164.662C742.123 167.345 738.606 168.687 734.165 168.687H691.136Z" fill="#614C9A"/>
<rect width="202" height="202" rx="21.1518" fill="#614C9A"/>
<rect x="44.6455" y="158.639" width="115.277" height="23.2052" rx="11.6026" transform="rotate(-90 44.6455 158.639)" fill="#E4E4E4"/>
<rect x="44.4189" y="135.372" width="113.162" height="23.267" rx="11.6335" fill="#E4E4E4"/>
<rect x="80.7429" y="103.636" width="51.1464" height="26.1994" rx="13.0997" transform="rotate(-42.8588 80.7429 103.636)" fill="#E4E4E4"/>
</svg>
